<?xml version="1.0" encoding="UTF-8"?>
<!DOCTYPE svg PUBLIC "-//W3C//DTD SVG 1.1//EN" "http://www.w3.org/Graphics/SVG/1.1/DTD/svg11.dtd">
<!-- Creator: CorelDRAW 2020 (64-Bit) -->
<svg xmlns="http://www.w3.org/2000/svg" xml:space="preserve" width="200mm" height="200mm" version="1.1" style="shape-rendering:geometricPrecision; text-rendering:geometricPrecision; image-rendering:optimizeQuality; fill-rule:evenodd; clip-rule:evenodd"
viewBox="0 0 20000 20000"
 xmlns:xlink="http://www.w3.org/1999/xlink"
 xmlns:xodm="http://www.corel.com/coreldraw/odm/2003">
 <defs>
  <style type="text/css">
   <![CDATA[
    .fil2 {fill:black}
    .fil0 {fill:#E4094D}
    .fil3 {fill:#E4094D}
    .fil1 {fill:white}
   ]]>
  </style>
 </defs>
 <g id="Layer_x0020_2">
  <metadata id="CorelCorpID_0Corel-Layer"/>
  <path class="fil0" d="M14437.79 7587.16c0,2554.3 -2070.68,4624.96 -4624.98,4624.96 -2554.29,0 -4624.96,-2070.66 -4624.96,-4624.96 0,-2554.3 2070.67,-4624.98 4624.96,-4624.98 2554.3,0 4624.98,2070.68 4624.98,4624.98z"/>
  <g id="_1501056293536">
   <path class="fil1" d="M6892.71 4770.17l1077.98 -372.28c147.74,-51.01 294.39,-38.48 431.31,36.9 136.92,75.35 225.97,192.54 261.9,344.65l798.64 3381.09c62.62,265.09 -81.84,531.88 -338.07,624.33l-439.32 158.52c-262.31,94.64 -551.5,-27.37 -666.73,-281.32l-1437.29 -3167.32c-64.32,-141.72 -65.77,-288.16 -4.28,-431.13 61.48,-142.96 168.77,-242.64 315.86,-293.44z"/>
   <path class="fil1" d="M9349.32 10892.37c436.03,-17.37 777.49,-387.16 760.11,-823.21 -17.37,-436.04 -387.17,-777.51 -823.2,-760.14 -436.05,17.38 -777.51,387.19 -760.14,823.23 17.37,436.03 387.18,777.5 823.23,760.12z"/>
   <path class="fil1" d="M11019.02 8708.79c-14.71,7.46 -147.55,56.31 -287.61,104.03 -246.11,83.87 -369.63,360.28 -285.88,606.31l170.21 499.99c44.14,129.68 128.9,225.39 252.31,284.86 123.4,59.48 240.71,47.9 371.35,6.67 1082.75,-341.76 1812.73,-1242.75 1771.32,-2406.62 -42.57,-1196.85 -884.9,-2114.75 -1950.82,-2341.15 -382.7,-81.28 -699.56,-70.76 -1066.42,-21.2 -80.81,10.93 -210.16,41.79 -258,107.87 -47.83,66.08 -63.6,141.34 -46.32,221.06l207.57 958.23c28.87,133.22 157.42,225.47 291.12,198.95 206.66,-40.98 387.68,-33.85 519.62,-17.71 497.23,60.84 799.99,490.77 816.81,912.62 16.81,421.84 -140.17,683.68 -505.26,886.09z"/>
  </g>
  <g id="_1501056347104">
   <path class="fil2" d="M14413.37 16486.08c295.32,251.35 739.03,121.1 899.29,-253.65 167.27,-391.16 113.81,-916.95 -304.63,-1121.66 -278.67,-136.31 -1022.88,-46.04 -1033.57,51.88l-0.04 1875.13 438.94 0.03 0.01 -551.73zm0.15 -366.43l0 0 -0.13 -651.58c153.99,-76.49 357.68,-57.7 463.76,37.3 146.94,131.62 128.51,440.6 21.9,593.87 -96.23,138.32 -371.14,174.02 -485.53,20.41z"/>
   <path class="fil2" d="M5039.64 16582.09c883.51,103.02 1245.93,1.79 1368.08,-438.74 141.74,-511.23 -144.56,-1315.25 -957.59,-944.3l0 -498.96 -410.5 0.02 0.01 1881.98zm410.48 -1040.33l0 0c314.05,-214.58 607.72,56.42 598.7,328.04 -14.86,447.68 -577.52,402.27 -598.7,327.92l0 -655.96z"/>
   <path class="fil2" d="M9253.77 15850.5l553.14 -734.39 -455.65 0.01 -431.29 597.56c-7.6,10.52 -20.56,14.77 -32.92,10.78 -12.33,-3.99 -20.37,-15 -20.37,-27.98l-0.18 -996.19 -428.51 -0.08 -0.25 1928.45 428.74 0.06 -0.04 -569.55c0,-12.89 7.91,-23.85 20.15,-27.92 12.23,-4.08 25.13,-0.03 32.85,10.3l438.91 587.16 473.79 0 -578.08 -742.42c-8.28,-10.63 -8.41,-25.01 -0.29,-35.79z"/>
   <path class="fil2" d="M10812.28 15866.37l-1.13 286.46c-0.68,64.49 -158.61,168.15 -338.33,116.32 -254.27,-73.32 -179,-478.19 339.46,-402.78zm482.44 716.26l0 0 49.58 -256.33c-82.24,-26.09 -151.59,-65.05 -148.59,-165.74 15.83,-527.56 94.89,-795.41 -181.02,-983.48 -162.57,-110.81 -439.14,-140.07 -975.86,-22.09l87.12 293.09c140.4,-16.29 708.19,-160.74 703.38,145.35 -265.55,-7.68 -547.73,1.73 -775.61,170.08 -262.52,193.94 -221.12,610.31 23.57,782.07 165.57,116.22 502.01,128.13 747.09,-96.73 133.15,167.42 348.5,191.45 470.34,133.78z"/>
   <path class="fil2" d="M8185.12 16318.72c-102,-18.57 -130.62,-49.47 -130.6,-155.83l0.24 -1046.77 -408.11 0.05 -0.02 962.11c0,121.7 -125.51,188.35 -240.09,190.08 -145.84,2.19 -288.51,-94.63 -289.08,-251.31l-0.14 -900.93 -403.54 0.03 0.03 1019.51c20.5,377.75 396.96,676.23 954.91,337.39 135.88,151.64 307.63,143.49 467.73,119.83l48.67 -274.16z"/>
   <polygon class="fil2" points="11593.94,16623.59 12015.22,16623.59 12015.22,14696.52 11593.94,14696.52 "/>
   <path class="fil2" d="M13200.06 15866.37l-1.14 286.46c-0.67,64.49 -158.6,168.15 -338.32,116.32 -254.26,-73.32 -179,-478.19 339.46,-402.78zm482.43 716.26l0 0 49.59 -256.33c-82.25,-26.09 -151.59,-65.05 -148.59,-165.74 15.83,-527.56 94.89,-795.41 -181.02,-983.48 -162.57,-110.81 -439.14,-140.07 -975.85,-22.09l87.12 293.09c140.39,-16.29 708.18,-160.74 703.37,145.35 -265.55,-7.68 -547.73,1.73 -775.61,170.08 -262.52,193.94 -221.12,610.31 23.56,782.07 165.57,116.22 502.02,128.13 747.11,-96.73 133.14,167.42 348.49,191.45 470.32,133.78z"/>
   <path class="fil2" d="M16484.8 15866.37l-1.13 286.46c-0.68,64.49 -158.6,168.15 -338.34,116.32 -254.26,-73.32 -178.99,-478.19 339.47,-402.78zm482.44 716.26l0 0 49.58 -256.33c-82.24,-26.09 -151.58,-65.05 -148.58,-165.74 15.82,-527.56 94.89,-795.41 -181.03,-983.48 -162.57,-110.81 -439.14,-140.07 -975.85,-22.09l87.11 293.09c140.4,-16.29 708.19,-160.74 703.38,145.35 -265.55,-7.68 -547.73,1.73 -775.61,170.08 -262.53,193.94 -221.12,610.31 23.57,782.07 165.56,116.22 502,128.13 747.09,-96.73 133.15,167.42 348.5,191.45 470.34,133.78z"/>
   <path class="fil2" d="M18077.61 15850.5l553.14 -734.39 -455.65 0.01 -431.29 597.56c-7.6,10.52 -20.56,14.77 -32.92,10.78 -12.34,-3.99 -20.37,-15 -20.37,-27.98l-0.19 -996.19 -428.5 -0.08 -0.26 1928.45 428.74 0.06 -0.03 -569.55c0,-12.89 7.91,-23.85 20.15,-27.92 12.23,-4.08 25.12,-0.03 32.85,10.3l438.91 587.16 473.8 0 -578.09 -742.42c-8.29,-10.63 -8.42,-25.01 -0.29,-35.79z"/>
  </g>
  <g id="_1501056349792">
   <path class="fil3" d="M1492.82 14401.19l438.46 -145.15c60.09,-19.89 119.41,-14.05 174.47,17.19 55.04,31.22 90.5,79.13 104.26,140.93l305.84 1373.3c23.98,107.69 -35.9,214.96 -140.14,251.08l-178.73 61.91c-106.71,36.95 -223.18,-13.95 -268.53,-117.38l-565.57 -1290.08c-25.31,-57.72 -25.14,-117.04 0.51,-174.6 25.63,-57.58 69.6,-97.38 129.43,-117.2z"/>
   <path class="fil3" d="M2464.55 16298.97c201.06,-1.45 365.24,160.39 366.69,361.46 1.45,201.07 -160.38,365.25 -361.46,366.7 -201.07,1.45 -365.25,-160.38 -366.69,-361.46 -1.45,-201.07 160.38,-365.25 361.46,-366.7z"/>
   <path class="fil3" d="M3219.78 16063.69c-5.81,3.29 -58.6,25.65 -114.33,47.67 -97.93,38.7 -142.52,152.93 -103.85,250.83l78.57 198.94c20.38,51.6 56.52,88.66 107.61,110.32 51.07,21.65 98.3,14.7 150.34,-4.53 431.34,-159.29 709.12,-537.94 669.74,-1007.95 -40.49,-483.32 -399.08,-838.24 -834.66,-909.11 -156.39,-25.43 -284.36,-15.01 -431.8,12.17 -32.48,5.98 -84.2,20.99 -102.26,48.65 -18.07,27.66 -22.98,58.41 -14.45,90.32l102.6 383.59c14.27,53.33 68.07,88.14 121.64,74.82 82.8,-20.6 156.16,-21.24 209.85,-17.27 202.31,14.93 333.15,182.97 348.15,353.28 15,170.33 -43.41,279.29 -187.15,368.27z"/>
  </g>
 </g>
</svg>
